# xmcd CD database file
#
# Track frame offsets:
#	150
#	20132
#	35622
#	49107
#	66970
#	89675
#	108212
#	130627
#	145660
#	164137
#
# Disc length: 2380 seconds
#
# Revision: 2
# Processed by: cddbd v1.4PL0 Copyright (c) Steve Scherf et al.
# Submitted via: CDex 1.40Beta5
#
DISCID=8e094a0a
DTITLE=Highliners - Favorite Hits For Country Line Dancing
DYEAR=1900
DGENRE=Country
TTITLE0=Boot Scootin' Boogie
TTITLE1=I Feel Lucky
TTITLE2=Money In The Bank
TTITLE3=T-R-O-U-B-L-E
TTITLE4=Lost And Found
TTITLE5=Don't Rock The Jukebox
TTITLE6=Blame It On Your Heart
TTITLE7=Workin' Man's Ph.D.
TTITLE8=Texas Tattoo
TTITLE9=Great Balls Of Fire
EXTD=ID3G:   2
EXTT0=
EXTT1=
EXTT2=
EXTT3=
EXTT4=
EXTT5=
EXTT6=
EXTT7=
EXTT8=
EXTT9=
PLAYORDER=
